<svg width="30" height="30" viewBox="0 0 30 30" fill="none" xmlns="http://www.w3.org/2000/svg">
<path d="M22.4981 2.00732C19.6167 0.347956 16.264 -0.308601 12.9675 0.140976C9.67104 0.590554 6.61803 2.12074 4.28897 4.49071C1.95992 6.86068 0.487048 9.93587 0.102173 13.2323C-0.282702 16.5287 0.442268 19.8592 2.16299 22.6996L0 30.0002L7.48667 27.9081L7.50038 27.9172C9.20681 28.9187 11.0952 29.5733 13.0565 29.8433C15.0179 30.1132 17.0134 29.993 18.928 29.4898C20.8425 28.9866 22.6383 28.1102 24.2115 26.9112C25.7848 25.7122 27.1045 24.2143 28.0945 22.504C29.0845 20.7937 29.7252 18.9048 29.9797 16.9463C30.2341 14.9877 30.0972 12.9983 29.5769 11.0928C29.0566 9.18729 28.1632 7.40339 26.9483 5.84403C25.7333 4.28466 24.2208 2.98068 22.4981 2.00732ZM11.4516 16.1056H9.26123V13.9207H11.4516V16.1056ZM16.1462 16.1056H13.9482V13.9207H16.1462V16.1056ZM20.7159 16.1633H18.4067V13.8645H20.7159V16.1633Z" fill="#42477A"/>
</svg>
