<svg width="30" height="30" viewBox="0 0 30 30" fill="none" xmlns="http://www.w3.org/2000/svg">
<path d="M15 30C23.2843 30 30 23.2843 30 15C30 6.71573 23.2843 0 15 0C6.71573 0 0 6.71573 0 15C0 23.2843 6.71573 30 15 30Z" fill="#BF8A77"/>
<path d="M24.3088 17.7341H13.3567C13.2942 17.7299 13.2353 17.7031 13.1911 17.6589C13.1468 17.6146 13.1201 17.5558 13.1158 17.4933V7.62436C13.1201 7.56188 13.1468 7.50304 13.1911 7.45876C13.2353 7.41448 13.2942 7.38776 13.3567 7.38354H24.3091C24.3715 7.38782 24.4303 7.41458 24.4745 7.45885C24.5188 7.50313 24.5455 7.56192 24.5497 7.62436V17.4935C24.5454 17.556 24.5186 17.6147 24.4744 17.659C24.4301 17.7032 24.3713 17.7299 24.3088 17.7341Z" fill="url(#paint0_linear_14_1112)"/>
<path d="M13.557 13.3612L13.0757 14.1235V17.5326C13.0799 17.595 13.1066 17.6538 13.1508 17.6981C13.195 17.7424 13.2538 17.7691 13.3162 17.7734H23.5465L13.557 13.3612Z" fill="#BCA8A0"/>
<path d="M20.1341 9.63142H17.531C17.1453 9.63142 16.856 9.44596 16.856 9.1986V7.34351H20.8091V9.19805C20.8091 9.44568 20.5198 9.63142 20.1341 9.63142Z" fill="#A07361"/>
<path d="M13.3162 15.1266L13.7575 14.1639C13.8131 14.0293 13.8276 13.8812 13.799 13.7384C13.7705 13.5956 13.7002 13.4644 13.5972 13.3615C13.4571 13.2264 13.2701 13.1509 13.0756 13.1509C12.881 13.1509 12.694 13.2264 12.554 13.3615L10.5085 15.3674C9.63433 16.2376 8.45206 16.7277 7.21861 16.7311H5.2926V21.8663H13.7979C14.518 21.8713 15.2282 21.6981 15.8652 21.3621C16.5022 21.0261 17.0461 20.5377 17.4486 19.9405L18.4915 18.416C18.7323 18.0614 19.0307 17.7495 19.3743 17.4934C19.4922 17.4025 19.5891 17.2872 19.6584 17.1554C19.7276 17.0236 19.7676 16.8784 19.7755 16.7297C19.772 16.4754 19.6694 16.2326 19.4895 16.0528C19.3097 15.873 19.0668 15.7704 18.8125 15.767H13.7979C13.3967 15.7683 13.1559 15.4484 13.3162 15.1266Z" fill="url(#paint1_linear_14_1112)"/>
<path d="M7.17826 16.7314H6.17517V21.8666H7.65936V16.6913C7.50127 16.7245 7.33966 16.738 7.17826 16.7314Z" fill="#BCA8A0"/>
<path d="M6.45605 22.1876H5.2926V16.3302H6.45605C6.53934 16.3358 6.61777 16.3714 6.6768 16.4305C6.73582 16.4895 6.77144 16.5679 6.77705 16.6512V21.8666C6.77768 21.9089 6.76981 21.9509 6.7539 21.9901C6.73799 22.0294 6.71437 22.065 6.68444 22.0949C6.6545 22.1249 6.61886 22.1485 6.57963 22.1644C6.54041 22.1803 6.49838 22.1882 6.45605 22.1876Z" fill="#BEA196"/>
<path d="M17.9891 14.0578L17.0725 13.1412C16.9507 13.0328 16.8745 12.8824 16.859 12.7201C16.8435 12.5578 16.89 12.3957 16.9891 12.2663C17.0442 12.1881 17.1158 12.123 17.1988 12.0755C17.2818 12.028 17.3742 11.9992 17.4695 11.9913C17.5648 11.9833 17.6607 11.9963 17.7504 12.0294C17.8402 12.0625 17.9215 12.1149 17.9889 12.1828L18.3221 12.5161L19.6555 11.1827C19.7639 11.061 19.9143 10.9847 20.0766 10.9692C20.2388 10.9537 20.401 11.0002 20.5304 11.0993C20.6086 11.1544 20.6737 11.226 20.7212 11.309C20.7687 11.392 20.7975 11.4844 20.8054 11.5797C20.8134 11.675 20.8004 11.7709 20.7673 11.8607C20.7342 11.9504 20.6818 12.0318 20.6139 12.0991L18.6557 14.0573C18.5556 14.1191 18.4402 14.152 18.3225 14.1521C18.2048 14.1521 18.0894 14.1195 17.9891 14.0578Z" fill="#BF8A77"/>
<defs>
<linearGradient id="paint0_linear_14_1112" x1="18.8328" y1="7.38354" x2="18.8328" y2="17.7341" gradientUnits="userSpaceOnUse">
<stop stop-color="white"/>
<stop offset="1" stop-color="#BCA8A0"/>
</linearGradient>
<linearGradient id="paint1_linear_14_1112" x1="12.5341" y1="13.1509" x2="12.5341" y2="21.8664" gradientUnits="userSpaceOnUse">
<stop stop-color="white"/>
<stop offset="1" stop-color="#BEA196"/>
</linearGradient>
</defs>
</svg>
