<svg width="30" height="30" viewBox="0 0 30 30" fill="none" xmlns="http://www.w3.org/2000/svg">
<path d="M15 30C23.2843 30 30 23.2843 30 15C30 6.71573 23.2843 0 15 0C6.71573 0 0 6.71573 0 15C0 23.2843 6.71573 30 15 30Z" fill="#434776"/>
<path d="M20.4233 23.3619H9.71361C9.27476 23.3581 8.85497 23.182 8.54465 22.8717C8.23432 22.5614 8.05829 22.1416 8.05444 21.7028V8.95665C8.05829 8.5178 8.23432 8.09802 8.54465 7.78769C8.85497 7.47737 9.27476 7.30133 9.71361 7.29749H20.4608C20.8997 7.30133 21.3195 7.47737 21.6298 7.78769C21.9401 8.09802 22.1162 8.5178 22.12 8.95665V21.7025C22.1202 21.9236 22.0762 22.1426 21.9905 22.3464C21.9049 22.5503 21.7793 22.735 21.6212 22.8896C21.4631 23.0442 21.2757 23.1657 21.07 23.2468C20.8643 23.3279 20.6444 23.367 20.4233 23.3619Z" fill="url(#paint0_linear_14_731)"/>
<path d="M18.0462 8.99419H12.1198C11.9955 8.99557 11.8722 8.97213 11.7571 8.92526C11.642 8.87839 11.5374 8.80902 11.4495 8.72122C11.3615 8.63342 11.292 8.52896 11.2449 8.41394C11.1978 8.29893 11.1742 8.17568 11.1753 8.05141V7.3728H18.9901V8.05141C18.9912 8.17563 18.9676 8.29884 18.9205 8.41382C18.8735 8.52879 18.804 8.63323 18.7161 8.72102C18.6282 8.80881 18.5237 8.87818 18.4087 8.92509C18.2936 8.97199 18.1704 8.99549 18.0462 8.99419Z" fill="#9196CE"/>
<path d="M17.972 6.43005H17.0292C16.8416 6.4251 16.6588 6.37004 16.4996 6.27059C16.3405 6.17114 16.2109 6.03093 16.1242 5.8645C16.0232 5.68274 15.8757 5.5311 15.6968 5.42508C15.5179 5.31907 15.3141 5.2625 15.1061 5.26116C14.8967 5.25459 14.6896 5.30785 14.5093 5.41471C14.329 5.52156 14.1829 5.67758 14.0881 5.8645C14.0014 6.03093 13.8718 6.17114 13.7127 6.27059C13.5535 6.37004 13.3707 6.4251 13.1831 6.43005H12.2398C11.5986 6.43005 11.1842 6.84477 11.1842 7.37283V7.67449C11.1867 7.80374 11.2391 7.92701 11.3306 8.01842C11.422 8.10983 11.5452 8.16229 11.6745 8.16477H18.5C18.6293 8.16229 18.7526 8.10983 18.844 8.01842C18.9354 7.92701 18.9878 7.80374 18.9903 7.67449V7.37228C18.9634 7.11857 18.8453 6.88323 18.6581 6.70996C18.4708 6.53669 18.227 6.43724 17.972 6.43005Z" fill="#6F74AF"/>
<path d="M16.0864 5.8645C15.9854 5.68274 15.8379 5.5311 15.659 5.42508C15.4801 5.31907 15.2763 5.2625 15.0683 5.26116C14.8588 5.25459 14.6518 5.30785 14.4715 5.41471C14.2912 5.52156 14.1451 5.67758 14.0503 5.8645C13.9636 6.03093 13.834 6.17114 13.6748 6.27059C13.5157 6.37004 13.3329 6.4251 13.1453 6.43005H17.0294C16.8357 6.43046 16.6455 6.37802 16.4793 6.27836C16.3131 6.17871 16.1773 6.03562 16.0864 5.8645Z" fill="#D9DCFF"/>
<path d="M13.6398 17.9017L12.0667 16.3286C11.8578 16.1426 11.727 15.8845 11.7004 15.606C11.6739 15.3276 11.7536 15.0494 11.9237 14.8272C12.018 14.6928 12.1408 14.5807 12.2833 14.4989C12.4258 14.4171 12.5845 14.3676 12.7482 14.354C12.9119 14.3403 13.0767 14.3629 13.2307 14.4199C13.3848 14.477 13.5244 14.5672 13.6398 14.6842L14.2117 15.2561L16.4998 12.9681C16.6858 12.7592 16.9439 12.6283 17.2224 12.6018C17.5008 12.5753 17.779 12.655 18.0012 12.825C18.1356 12.9194 18.2477 13.0422 18.3295 13.1847C18.4113 13.3272 18.4608 13.4859 18.4744 13.6496C18.4881 13.8133 18.4656 13.978 18.4085 14.1321C18.3514 14.2862 18.2612 14.4258 18.1442 14.5411L14.7831 17.9022C14.6112 18.0081 14.4132 18.0641 14.2114 18.064C14.0095 18.0639 13.8116 18.0077 13.6398 17.9017Z" fill="#434776"/>
<defs>
<linearGradient id="paint0_linear_14_731" x1="15.0872" y1="24.4227" x2="15.0872" y2="9.2574" gradientUnits="userSpaceOnUse">
<stop stop-color="#7378A8"/>
<stop offset="1" stop-color="white"/>
</linearGradient>
</defs>
</svg>
