<svg width="30" height="30" viewBox="0 0 30 30" fill="none" xmlns="http://www.w3.org/2000/svg">
<path d="M15 30C23.2843 30 30 23.2843 30 15C30 6.71573 23.2843 0 15 0C6.71573 0 0 6.71573 0 15C0 23.2843 6.71573 30 15 30Z" fill="#434776"/>
<path d="M24.6122 14.5472V19.7764H21.9963C21.9997 19.4738 21.943 19.1735 21.8295 18.893C21.716 18.6124 21.5479 18.3572 21.3351 18.142C21.1223 17.9268 20.869 17.756 20.5897 17.6394C20.3104 17.5229 20.0108 17.4628 19.7082 17.4628C19.4055 17.4628 19.1059 17.5229 18.8266 17.6394C18.5474 17.756 18.294 17.9268 18.0812 18.142C17.8684 18.3572 17.7003 18.6124 17.5868 18.893C17.4733 19.1735 17.4166 19.4738 17.42 19.7764H16.1122V9.97083H21.5158C21.7587 9.97062 21.9968 10.0381 22.2036 10.1657C22.4103 10.2932 22.5773 10.4758 22.6861 10.693L24.6122 14.5472Z" fill="url(#paint0_linear_14_765)"/>
<path d="M19.708 22.0658C20.9718 22.0658 21.9963 21.0413 21.9963 19.7775C21.9963 18.5137 20.9718 17.4891 19.708 17.4891C18.4442 17.4891 17.4197 18.5137 17.4197 19.7775C17.4197 21.0413 18.4442 22.0658 19.708 22.0658Z" fill="#9196CE"/>
<path d="M19.7077 20.7581C20.2493 20.7581 20.6883 20.3191 20.6883 19.7776C20.6883 19.236 20.2493 18.797 19.7077 18.797C19.1662 18.797 18.7272 19.236 18.7272 19.7776C18.7272 20.3191 19.1662 20.7581 19.7077 20.7581Z" fill="#E0E6FE"/>
<path d="M8.92054 22.0658C10.1843 22.0658 11.2089 21.0413 11.2089 19.7775C11.2089 18.5137 10.1843 17.4891 8.92054 17.4891C7.65672 17.4891 6.6322 18.5137 6.6322 19.7775C6.6322 21.0413 7.65672 22.0658 8.92054 22.0658Z" fill="#9196CE"/>
<path d="M8.92025 20.7581C9.4618 20.7581 9.90081 20.3191 9.90081 19.7776C9.90081 19.236 9.4618 18.797 8.92025 18.797C8.37871 18.797 7.9397 19.236 7.9397 19.7776C7.9397 20.3191 8.37871 20.7581 8.92025 20.7581Z" fill="#E0E6FE"/>
<path d="M24.6111 14.5472H18.0734V11.2783H22.9767L24.6111 14.5472Z" fill="#6F74AF"/>
<path d="M16.112 16.1816V19.7775H11.2086C11.202 19.175 10.958 18.5994 10.5296 18.1757C10.1012 17.752 9.52298 17.5144 8.92044 17.5144C8.31791 17.5144 7.73968 17.752 7.31128 18.1757C6.88289 18.5994 6.63889 19.175 6.63225 19.7775H4.9978V16.1816H16.112Z" fill="url(#paint1_linear_14_765)"/>
<path d="M14.6405 16.182H6.60774C6.56523 16.1791 6.52523 16.1609 6.4951 16.1307C6.46497 16.1006 6.44677 16.0606 6.44385 16.0181V8.80476C6.44677 8.76225 6.46497 8.72224 6.4951 8.69211C6.52523 8.66199 6.56523 8.64379 6.60774 8.64087H14.6405C14.683 8.64373 14.7231 8.66192 14.7532 8.69205C14.7834 8.72219 14.8015 8.76223 14.8044 8.80476V16.0178C14.8016 16.0604 14.7835 16.1005 14.7533 16.1307C14.7232 16.1609 14.6831 16.1791 14.6405 16.182Z" fill="url(#paint2_linear_14_765)"/>
<path d="M11.4439 10.7631H9.80503C9.74988 10.7659 9.69476 10.7571 9.6433 10.737C9.59184 10.717 9.54521 10.6863 9.50649 10.6469C9.46777 10.6075 9.43784 10.5604 9.41867 10.5086C9.39951 10.4568 9.39155 10.4015 9.39532 10.3464V8.59338H11.7723V10.3459C11.7852 10.3956 11.7865 10.4477 11.7759 10.498C11.7654 10.5484 11.7434 10.5956 11.7116 10.636C11.6798 10.6764 11.6391 10.7089 11.5927 10.7309C11.5462 10.753 11.4953 10.764 11.4439 10.7631Z" fill="#6F74AF"/>
<defs>
<linearGradient id="paint0_linear_14_765" x1="20.3622" y1="9.97083" x2="20.3622" y2="19.7764" gradientUnits="userSpaceOnUse">
<stop stop-color="white"/>
<stop offset="1" stop-color="#8D91C1"/>
</linearGradient>
<linearGradient id="paint1_linear_14_765" x1="10.5549" y1="16.1816" x2="10.5549" y2="19.7775" gradientUnits="userSpaceOnUse">
<stop stop-color="#D8D9EF"/>
<stop offset="1" stop-color="#8D91C1"/>
</linearGradient>
<linearGradient id="paint2_linear_14_765" x1="10.6241" y1="10.0661" x2="10.6241" y2="16.182" gradientUnits="userSpaceOnUse">
<stop stop-color="#EEEEEE"/>
<stop offset="1" stop-color="#A5A9D8"/>
</linearGradient>
</defs>
</svg>
