<svg width="30" height="30" viewBox="0 0 30 30" fill="none" xmlns="http://www.w3.org/2000/svg">
<path d="M15 30C23.2843 30 30 23.2843 30 15C30 6.71573 23.2843 0 15 0C6.71573 0 0 6.71573 0 15C0 23.2843 6.71573 30 15 30Z" fill="#434776"/>
<path d="M7.21143 11.0539V19.6437C7.21622 19.7418 7.24293 19.8377 7.2896 19.9242C7.33628 20.0108 7.40172 20.0857 7.48115 20.1437L14.9153 24.42C15.0011 24.4765 15.1015 24.5066 15.2042 24.5066C15.3069 24.5066 15.4073 24.4765 15.4931 24.42L22.9273 20.1442C23.0126 20.0924 23.0826 20.0187 23.13 19.9308C23.1774 19.843 23.2006 19.744 23.197 19.6442V11.0539C23.1922 10.9557 23.1655 10.8599 23.1188 10.7734C23.0721 10.6868 23.0067 10.6119 22.9273 10.5539L15.4931 6.27755C15.4073 6.22104 15.3069 6.19092 15.2042 6.19092C15.1015 6.19092 15.0011 6.22104 14.9153 6.27755L7.51948 10.5531C7.42954 10.6032 7.35398 10.6756 7.30004 10.7633C7.2461 10.851 7.21558 10.9511 7.21143 11.0539Z" fill="url(#paint0_linear_14_708)"/>
<path d="M15.2233 15.3298L23.1583 10.7464C23.1148 10.6645 23.0478 10.5974 22.9658 10.5539L19.2294 8.39672L15.4936 6.23922C15.4078 6.18271 15.3074 6.15259 15.2047 6.15259C15.102 6.15259 15.0015 6.18271 14.9158 6.23922L11.1794 8.39644L7.5194 10.5534C7.43744 10.5969 7.37039 10.6639 7.3269 10.7459L15.2233 15.3298Z" fill="url(#paint1_linear_14_708)"/>
<path d="M15.1078 9.28198L9.90784 12.2864V15.6753L12.3345 17.1006V13.7117L17.5345 10.7073L15.1078 9.28198Z" fill="#6F74AF"/>
<path d="M15.1078 9.28198L9.90784 12.2864L12.3345 13.7117L17.5345 10.7073L15.1078 9.28198Z" fill="#6F74AF"/>
<path d="M15.2236 15.3292V24.4959C15.3186 24.4937 15.4115 24.4672 15.4934 24.4189L19.2297 22.262L22.9661 20.107C23.0515 20.0551 23.1215 19.9815 23.1689 19.8936C23.2163 19.8057 23.2394 19.7068 23.2359 19.607V11.0156C23.2337 10.9206 23.2072 10.8277 23.1589 10.7458L15.2236 15.3292Z" fill="#8D91C1"/>
<path d="M17.6503 18.9889H17.6892L18.3836 19.5667C18.4222 19.6053 18.3836 19.6822 18.345 19.7208L18.1908 19.7978C18.1522 19.8364 18.1139 19.8747 18.1139 19.9133V20.4911C18.1081 20.5443 18.0914 20.5956 18.0649 20.642C18.0384 20.6884 18.0026 20.7289 17.9597 20.7608L17.3433 21.1075C17.2664 21.1461 17.1892 21.1075 17.1892 21.0303V20.4525C17.1892 20.4139 17.1506 20.3756 17.1122 20.4139L16.9581 20.4908C16.8811 20.5295 16.8811 20.4522 16.9194 20.3753L17.6139 19.0269L17.6503 18.9889Z" fill="#6F74AF"/>
<path d="M19.7689 17.7947H19.8078L20.5023 18.3725C20.5409 18.4111 20.5023 18.488 20.4637 18.5266L20.3095 18.6038C20.2709 18.6425 20.2325 18.6808 20.2325 18.7194V19.2972C20.2268 19.3503 20.2101 19.4017 20.1836 19.4481C20.157 19.4945 20.1212 19.535 20.0784 19.5669L19.462 19.9136C19.385 19.9519 19.3078 19.9136 19.3078 19.8366V19.2588C19.3078 19.2202 19.2692 19.1819 19.2309 19.2202L19.0767 19.2972C18.9998 19.3358 18.9998 19.2588 19.0381 19.1816L19.7325 17.8336L19.7689 17.7947Z" fill="#6F74AF"/>
<defs>
<linearGradient id="paint0_linear_14_708" x1="15.2044" y1="6.19092" x2="15.2044" y2="24.5066" gradientUnits="userSpaceOnUse">
<stop stop-color="white"/>
<stop offset="1" stop-color="#8D91C1"/>
</linearGradient>
<linearGradient id="paint1_linear_14_708" x1="13.137" y1="7.60258" x2="15.1554" y2="14.396" gradientUnits="userSpaceOnUse">
<stop stop-color="white"/>
<stop offset="1" stop-color="#ABAFE0"/>
</linearGradient>
</defs>
</svg>
