<svg width="30" height="30" viewBox="0 0 30 30" fill="none" xmlns="http://www.w3.org/2000/svg">
<path d="M15 30C23.2843 30 30 23.2843 30 15C30 6.71573 23.2843 0 15 0C6.71573 0 0 6.71573 0 15C0 23.2843 6.71573 30 15 30Z" fill="#434776"/>
<path d="M10.3653 19.0409L21.0025 8.50049C21.0025 8.50049 20.4604 7.9476 19.1853 8.36107C18.2735 8.68023 17.2104 9.70868 17.2104 9.70868L16.1491 10.7907C16.1491 10.7907 13.8779 13.0528 13.1571 13.7556L11.0494 15.8441L8.23074 15.0768C8.23074 15.0768 7.76405 14.924 7.27635 15.4316C6.63703 16.0809 6.43755 16.2628 6.43755 16.2628C6.40535 16.328 6.38673 16.3989 6.3828 16.4713C6.37887 16.5438 6.3897 16.6163 6.41466 16.6845C6.43961 16.7527 6.47818 16.8152 6.52805 16.8684C6.57793 16.9215 6.63809 16.9641 6.70495 16.9937C6.92895 17.093 7.68991 17.5157 8.46643 17.955C9.40545 18.4863 10.3653 19.0409 10.3653 19.0409Z" fill="url(#paint0_linear_14_752)"/>
<path d="M13.1484 13.7739L16.1356 10.8139L10.0749 9.11568C10.0749 9.11568 9.59903 8.86942 9.05118 9.42964C8.50333 9.98986 8.10787 10.3644 8.10787 10.3644C8.03007 10.4307 7.97169 10.5166 7.93886 10.613C7.90603 10.7094 7.89994 10.8127 7.92124 10.9122C7.98854 11.0377 8.09217 11.1404 8.21881 11.2071L13.1484 13.7739Z" fill="#6F74AF" fill-opacity="0.7"/>
<path d="M10.3652 19.041L21.0023 8.50054C21.0023 8.50054 21.5984 9.02567 21.143 10.3012C20.8209 11.2046 19.783 12.2582 19.783 12.2582L18.6903 13.3105C18.6903 13.3105 16.4074 15.5611 15.6982 16.2754L13.5913 18.3631L14.3661 21.1554C14.3661 21.1554 14.5208 21.6172 14.0074 22.1009C13.3527 22.7346 13.1688 22.9319 13.1688 22.9319C13.1031 22.9638 13.0316 22.9822 12.9585 22.9862C12.8854 22.9901 12.8123 22.9794 12.7435 22.9547C12.6747 22.93 12.6116 22.8919 12.558 22.8425C12.5044 22.7932 12.4613 22.7337 12.4314 22.6675C12.3314 22.4453 11.9048 21.6917 11.461 20.9218C10.9241 19.9913 10.3652 19.041 10.3652 19.041Z" fill="url(#paint1_linear_14_752)"/>
<path d="M15.6808 16.2833L18.668 13.3233L20.3814 19.3285C20.3814 19.3285 20.6299 19.8 20.0645 20.3429C19.4992 20.8858 19.1212 21.2776 19.1212 21.2776C19.0542 21.3547 18.9675 21.4126 18.8702 21.4451C18.7729 21.4776 18.6686 21.4836 18.5681 21.4624C18.4415 21.3957 18.3378 21.293 18.2706 21.1675L15.6808 16.2833Z" fill="#989BBE"/>
<defs>
<linearGradient id="paint0_linear_14_752" x1="10.4932" y1="9.82845" x2="15.0535" y2="14.397" gradientUnits="userSpaceOnUse">
<stop stop-color="#434776" stop-opacity="0.502"/>
<stop offset="1" stop-color="#9194C1"/>
</linearGradient>
<linearGradient id="paint1_linear_14_752" x1="15.2728" y1="14.178" x2="18.6075" y2="17.5433" gradientUnits="userSpaceOnUse">
<stop stop-color="#F2F4FC"/>
<stop offset="1" stop-color="#6F74AF"/>
</linearGradient>
</defs>
</svg>
