<svg width="30" height="30" viewBox="0 0 30 30" fill="none" xmlns="http://www.w3.org/2000/svg">
<path d="M15 30C23.2843 30 30 23.2843 30 15C30 6.71573 23.2843 0 15 0C6.71573 0 0 6.71573 0 15C0 23.2843 6.71573 30 15 30Z" fill="#434776"/>
<path d="M21.4134 22.7031H6.80066V17.7586H21.4134C21.7416 17.7566 22.067 17.8191 22.3706 17.9427C22.6742 18.0662 22.9501 18.2482 23.1822 18.4782C23.4143 18.7082 23.598 18.9815 23.7226 19.2824C23.8473 19.5832 23.9104 19.9056 23.9084 20.2309C23.9104 20.5561 23.8473 20.8785 23.7226 21.1794C23.598 21.4802 23.4143 21.7536 23.1822 21.9835C22.9501 22.2135 22.6742 22.3956 22.3706 22.5191C22.067 22.6426 21.7416 22.7052 21.4134 22.7031Z" fill="#F8F9FF"/>
<path d="M21.3421 18.3591H6.80066V19.1713H21.3421C21.6352 19.1713 21.9162 19.2867 22.1234 19.492C22.3306 19.6973 22.447 19.9758 22.447 20.2662C22.447 20.5566 22.3306 20.835 22.1234 21.0404C21.9162 21.2457 21.6352 21.361 21.3421 21.361H6.80066V22.1732H21.3421C21.5952 22.1743 21.8459 22.1256 22.0799 22.0302C22.3139 21.9347 22.5265 21.7943 22.7054 21.617C22.8844 21.4396 23.0261 21.229 23.1224 20.9971C23.2188 20.7653 23.2679 20.5168 23.2668 20.266C23.2569 19.7633 23.0509 19.284 22.6921 18.9284C22.3332 18.5729 21.8494 18.3689 21.3421 18.3591Z" fill="#9196CE" fill-opacity="0.5"/>
<path d="M21.4134 17.7587H6.80066V18.8182H21.4134C21.7915 18.8182 22.1542 18.9671 22.4215 19.232C22.6889 19.4969 22.8391 19.8563 22.8391 20.2309C22.8391 20.6056 22.6889 20.965 22.4215 21.2299C22.1542 21.4948 21.7915 21.6437 21.4134 21.6437H6.80066V22.7032H21.4134C22.0751 22.7032 22.7097 22.4427 23.1776 21.9791C23.6455 21.5155 23.9084 20.8866 23.9084 20.2309C23.9084 19.5753 23.6455 18.9464 23.1776 18.4828C22.7097 18.0191 22.0751 17.7587 21.4134 17.7587Z" fill="#9196CE"/>
<path d="M8.22603 20.6193C8.44249 20.6193 8.61796 20.4454 8.61796 20.2309C8.61796 20.0164 8.44249 19.8425 8.22603 19.8425C8.00958 19.8425 7.83411 20.0164 7.83411 20.2309C7.83411 20.4454 8.00958 20.6193 8.22603 20.6193Z" fill="#6F74AF"/>
<path d="M8.22606 20.4429C8.34417 20.4429 8.43991 20.348 8.43991 20.231C8.43991 20.1139 8.34417 20.019 8.22606 20.019C8.10795 20.019 8.01221 20.1139 8.01221 20.231C8.01221 20.348 8.10795 20.4429 8.22606 20.4429Z" fill="#6F74AF"/>
<path d="M9.79427 20.6193C10.0107 20.6193 10.1862 20.4454 10.1862 20.2309C10.1862 20.0164 10.0107 19.8425 9.79427 19.8425C9.57782 19.8425 9.40234 20.0164 9.40234 20.2309C9.40234 20.4454 9.57782 20.6193 9.79427 20.6193Z" fill="#6F74AF"/>
<path d="M9.7943 20.4429C9.91241 20.4429 10.0082 20.348 10.0082 20.231C10.0082 20.1139 9.91241 20.019 9.7943 20.019C9.67619 20.019 9.58044 20.1139 9.58044 20.231C9.58044 20.348 9.67619 20.4429 9.7943 20.4429Z" fill="#6F74AF"/>
<path d="M11.3267 20.6193C11.5432 20.6193 11.7187 20.4454 11.7187 20.2309C11.7187 20.0164 11.5432 19.8425 11.3267 19.8425C11.1103 19.8425 10.9348 20.0164 10.9348 20.2309C10.9348 20.4454 11.1103 20.6193 11.3267 20.6193Z" fill="#6F74AF"/>
<path d="M11.3268 20.4429C11.4449 20.4429 11.5406 20.348 11.5406 20.231C11.5406 20.1139 11.4449 20.019 11.3268 20.019C11.2087 20.019 11.1129 20.1139 11.1129 20.231C11.1129 20.348 11.2087 20.4429 11.3268 20.4429Z" fill="#6F74AF"/>
<path d="M12.895 20.6193C13.1114 20.6193 13.2869 20.4454 13.2869 20.2309C13.2869 20.0164 13.1114 19.8425 12.895 19.8425C12.6785 19.8425 12.5031 20.0164 12.5031 20.2309C12.5031 20.4454 12.6785 20.6193 12.895 20.6193Z" fill="#6F74AF"/>
<path d="M12.895 20.4429C13.0131 20.4429 13.1089 20.348 13.1089 20.231C13.1089 20.1139 13.0131 20.019 12.895 20.019C12.7769 20.019 12.6812 20.1139 12.6812 20.231C12.6812 20.348 12.7769 20.4429 12.895 20.4429Z" fill="#6F74AF"/>
<path d="M14.4633 20.6193C14.6798 20.6193 14.8553 20.4454 14.8553 20.2309C14.8553 20.0164 14.6798 19.8425 14.4633 19.8425C14.2469 19.8425 14.0714 20.0164 14.0714 20.2309C14.0714 20.4454 14.2469 20.6193 14.4633 20.6193Z" fill="#6F74AF"/>
<path d="M14.4634 20.4429C14.5815 20.4429 14.6772 20.348 14.6772 20.231C14.6772 20.1139 14.5815 20.019 14.4634 20.019C14.3453 20.019 14.2495 20.1139 14.2495 20.231C14.2495 20.348 14.3453 20.4429 14.4634 20.4429Z" fill="#6F74AF"/>
<path d="M16.0316 20.6193C16.248 20.6193 16.4235 20.4454 16.4235 20.2309C16.4235 20.0164 16.248 19.8425 16.0316 19.8425C15.8151 19.8425 15.6396 20.0164 15.6396 20.2309C15.6396 20.4454 15.8151 20.6193 16.0316 20.6193Z" fill="#6F74AF"/>
<path d="M16.0316 20.4429C16.1497 20.4429 16.2455 20.348 16.2455 20.231C16.2455 20.1139 16.1497 20.019 16.0316 20.019C15.9135 20.019 15.8177 20.1139 15.8177 20.231C15.8177 20.348 15.9135 20.4429 16.0316 20.4429Z" fill="#6F74AF"/>
<path d="M17.564 20.6193C17.7805 20.6193 17.956 20.4454 17.956 20.2309C17.956 20.0164 17.7805 19.8425 17.564 19.8425C17.3476 19.8425 17.1721 20.0164 17.1721 20.2309C17.1721 20.4454 17.3476 20.6193 17.564 20.6193Z" fill="#6F74AF"/>
<path d="M17.5641 20.4429C17.6822 20.4429 17.7779 20.348 17.7779 20.231C17.7779 20.1139 17.6822 20.019 17.5641 20.019C17.446 20.019 17.3502 20.1139 17.3502 20.231C17.3502 20.348 17.446 20.4429 17.5641 20.4429Z" fill="#6F74AF"/>
<path d="M19.1323 20.6193C19.3487 20.6193 19.5242 20.4454 19.5242 20.2309C19.5242 20.0164 19.3487 19.8425 19.1323 19.8425C18.9158 19.8425 18.7404 20.0164 18.7404 20.2309C18.7404 20.4454 18.9158 20.6193 19.1323 20.6193Z" fill="#6F74AF"/>
<path d="M19.1323 20.4429C19.2504 20.4429 19.3462 20.348 19.3462 20.231C19.3462 20.1139 19.2504 20.019 19.1323 20.019C19.0142 20.019 18.9185 20.1139 18.9185 20.231C18.9185 20.348 19.0142 20.4429 19.1323 20.4429Z" fill="#6F74AF"/>
<path d="M20.7005 20.6193C20.917 20.6193 21.0924 20.4454 21.0924 20.2309C21.0924 20.0164 20.917 19.8425 20.7005 19.8425C20.4841 19.8425 20.3086 20.0164 20.3086 20.2309C20.3086 20.4454 20.4841 20.6193 20.7005 20.6193Z" fill="#6F74AF"/>
<path d="M20.7005 20.4429C20.8187 20.4429 20.9144 20.348 20.9144 20.231C20.9144 20.1139 20.8187 20.019 20.7005 20.019C20.5824 20.019 20.4867 20.1139 20.4867 20.231C20.4867 20.348 20.5824 20.4429 20.7005 20.4429Z" fill="#6F74AF"/>
<path d="M20.5921 17.7587H9.56474C9.50637 17.7548 9.4514 17.7301 9.41 17.6891C9.36861 17.6481 9.34359 17.5937 9.3396 17.5359V7.72394C9.34353 7.66606 9.36852 7.61155 9.40992 7.57053C9.45132 7.5295 9.50633 7.50475 9.56474 7.50085H20.5918C20.6502 7.50475 20.7052 7.5295 20.7466 7.57053C20.788 7.61155 20.813 7.66606 20.8169 7.72394V17.5359C20.813 17.5936 20.788 17.6481 20.7467 17.689C20.7053 17.73 20.6504 17.7547 20.5921 17.7587Z" fill="url(#paint0_linear_14_451)"/>
<path d="M16.2038 10.3876H13.9533C13.8775 10.3915 13.8017 10.3793 13.731 10.352C13.6603 10.3247 13.5963 10.2829 13.5431 10.2292C13.49 10.1756 13.4489 10.1114 13.4226 10.0409C13.3963 9.97033 13.3854 9.89507 13.3907 9.82007V7.43616H16.6538V9.82007C16.6712 9.88766 16.6728 9.95833 16.6582 10.0266C16.6437 10.0949 16.6135 10.1589 16.57 10.2138C16.5265 10.2686 16.4709 10.3129 16.4074 10.343C16.3439 10.3731 16.2742 10.3884 16.2038 10.3876Z" fill="#6F74AF"/>
<defs>
<linearGradient id="paint0_linear_14_451" x1="15.0783" y1="9.7268" x2="15.0783" y2="17.7587" gradientUnits="userSpaceOnUse">
<stop stop-color="white"/>
<stop offset="1" stop-color="#8D91C1"/>
</linearGradient>
</defs>
</svg>
